<svg width="16" height="14" viewBox="0 0 16 14" fill="none" xmlns="http://www.w3.org/2000/svg">
<path d="M16 4.68283V11.7721C16 12.165 15.8601 12.5013 15.5804 12.781C15.3006 13.0608 14.9643 13.2007 14.5714 13.2007H1.42857C1.03571 13.2007 0.699405 13.0608 0.419643 12.781C0.139881 12.5013 0 12.165 0 11.7721V4.68283C0.261905 4.97449 0.5625 5.23342 0.901786 5.45961C3.05655 6.9239 4.53571 7.95068 5.33929 8.53997C5.67857 8.78997 5.95387 8.98491 6.16518 9.12479C6.37649 9.26467 6.65774 9.40753 7.00893 9.55336C7.36012 9.6992 7.6875 9.77211 7.99107 9.77211H8H8.00893C8.3125 9.77211 8.63988 9.6992 8.99107 9.55336C9.34226 9.40753 9.62351 9.26467 9.83482 9.12479C10.0461 8.98491 10.3214 8.78997 10.6607 8.53997C11.6726 7.80783 13.1548 6.78104 15.1071 5.45961C15.4464 5.22747 15.744 4.96854 16 4.68283ZM16 2.05783C16 2.52806 15.8542 2.97747 15.5625 3.40604C15.2708 3.83461 14.9077 4.20068 14.4732 4.50425C12.2351 6.05783 10.8423 7.02509 10.2946 7.40604C10.2351 7.44771 10.1086 7.53848 9.91518 7.67836C9.72173 7.81824 9.56101 7.93134 9.43304 8.01765C9.30506 8.10396 9.1503 8.20068 8.96875 8.30783C8.7872 8.41497 8.61607 8.49533 8.45536 8.5489C8.29464 8.60247 8.14583 8.62925 8.00893 8.62925H8H7.99107C7.85417 8.62925 7.70536 8.60247 7.54464 8.5489C7.38393 8.49533 7.2128 8.41497 7.03125 8.30783C6.8497 8.20068 6.69494 8.10396 6.56696 8.01765C6.43899 7.93134 6.27827 7.81824 6.08482 7.67836C5.89137 7.53848 5.76488 7.44771 5.70536 7.40604C5.16369 7.02509 4.38393 6.48193 3.36607 5.77658C2.34821 5.07122 1.7381 4.64711 1.53571 4.50425C1.16667 4.25425 0.818452 3.9105 0.491071 3.473C0.16369 3.0355 0 2.62925 0 2.25425C0 1.78997 0.123512 1.40306 0.370536 1.09354C0.61756 0.784017 0.970238 0.629254 1.42857 0.629254H14.5714C14.9583 0.629254 15.2932 0.769135 15.5759 1.0489C15.8586 1.32866 16 1.66497 16 2.05783Z" fill="#C6282E"/>
</svg>
