<svg width="16" height="17" viewBox="0 0 16 17" fill="none" xmlns="http://www.w3.org/2000/svg">
<path d="M2.57143 3.77232C2.96429 3.77232 3.3006 3.9122 3.58036 4.19196C3.86012 4.47173 4 4.80803 4 5.20089V14.9152C4 15.308 3.86012 15.6443 3.58036 15.9241C3.3006 16.2039 2.96429 16.3438 2.57143 16.3438H1.42857C1.03571 16.3438 0.699405 16.2039 0.419643 15.9241C0.139881 15.6443 0 15.308 0 14.9152V5.20089C0 4.80803 0.139881 4.47173 0.419643 4.19196C0.699405 3.9122 1.03571 3.77232 1.42857 3.77232H2.57143ZM14.8571 5.22768C15.2024 5.43006 15.4792 5.70684 15.6875 6.05803C15.8958 6.40923 16 6.79018 16 7.20089V14.058C16 14.689 15.7768 15.2277 15.3304 15.6741C14.8839 16.1205 14.3452 16.3438 13.7143 16.3438H6C5.60714 16.3438 5.27083 16.2039 4.99107 15.9241C4.71131 15.6443 4.57143 15.308 4.57143 14.9152V1.20089C4.57143 0.962797 4.65476 0.760416 4.82143 0.593749C4.9881 0.427083 5.19048 0.34375 5.42857 0.34375H11.4286C11.6667 0.34375 11.9286 0.403273 12.2143 0.522321C12.5 0.641368 12.7262 0.784225 12.8929 0.950892L14.25 2.30803C14.4167 2.4747 14.5595 2.70089 14.6786 2.98661C14.7976 3.27232 14.8571 3.53423 14.8571 3.77232V5.22768ZM8.28572 14.058V12.9152C8.28572 12.8318 8.25893 12.7634 8.20536 12.7098C8.15179 12.6562 8.08333 12.6295 8 12.6295H6.85714C6.77381 12.6295 6.70536 12.6562 6.65179 12.7098C6.59821 12.7634 6.57143 12.8318 6.57143 12.9152V14.058C6.57143 14.1414 6.59821 14.2098 6.65179 14.2634C6.70536 14.317 6.77381 14.3438 6.85714 14.3438H8C8.08333 14.3438 8.15179 14.317 8.20536 14.2634C8.25893 14.2098 8.28572 14.1414 8.28572 14.058ZM8.28572 11.7723V10.6295C8.28572 10.5461 8.25893 10.4777 8.20536 10.4241C8.15179 10.3705 8.08333 10.3437 8 10.3437H6.85714C6.77381 10.3437 6.70536 10.3705 6.65179 10.4241C6.59821 10.4777 6.57143 10.5461 6.57143 10.6295V11.7723C6.57143 11.8557 6.59821 11.9241 6.65179 11.9777C6.70536 12.0312 6.77381 12.058 6.85714 12.058H8C8.08333 12.058 8.15179 12.0312 8.20536 11.9777C8.25893 11.9241 8.28572 11.8557 8.28572 11.7723ZM8.28572 9.48661V8.34375C8.28572 8.26042 8.25893 8.19196 8.20536 8.13839C8.15179 8.08482 8.08333 8.05803 8 8.05803H6.85714C6.77381 8.05803 6.70536 8.08482 6.65179 8.13839C6.59821 8.19196 6.57143 8.26042 6.57143 8.34375V9.48661C6.57143 9.56994 6.59821 9.63839 6.65179 9.69196C6.70536 9.74554 6.77381 9.77232 6.85714 9.77232H8C8.08333 9.77232 8.15179 9.74554 8.20536 9.69196C8.25893 9.63839 8.28572 9.56994 8.28572 9.48661ZM10.5714 14.058V12.9152C10.5714 12.8318 10.5446 12.7634 10.4911 12.7098C10.4375 12.6562 10.369 12.6295 10.2857 12.6295H9.14286C9.05952 12.6295 8.99107 12.6562 8.9375 12.7098C8.88393 12.7634 8.85714 12.8318 8.85714 12.9152V14.058C8.85714 14.1414 8.88393 14.2098 8.9375 14.2634C8.99107 14.317 9.05952 14.3438 9.14286 14.3438H10.2857C10.369 14.3438 10.4375 14.317 10.4911 14.2634C10.5446 14.2098 10.5714 14.1414 10.5714 14.058ZM10.5714 11.7723V10.6295C10.5714 10.5461 10.5446 10.4777 10.4911 10.4241C10.4375 10.3705 10.369 10.3437 10.2857 10.3437H9.14286C9.05952 10.3437 8.99107 10.3705 8.9375 10.4241C8.88393 10.4777 8.85714 10.5461 8.85714 10.6295V11.7723C8.85714 11.8557 8.88393 11.9241 8.9375 11.9777C8.99107 12.0312 9.05952 12.058 9.14286 12.058H10.2857C10.369 12.058 10.4375 12.0312 10.4911 11.9777C10.5446 11.9241 10.5714 11.8557 10.5714 11.7723ZM10.5714 9.48661V8.34375C10.5714 8.26042 10.5446 8.19196 10.4911 8.13839C10.4375 8.08482 10.369 8.05803 10.2857 8.05803H9.14286C9.05952 8.05803 8.99107 8.08482 8.9375 8.13839C8.88393 8.19196 8.85714 8.26042 8.85714 8.34375V9.48661C8.85714 9.56994 8.88393 9.63839 8.9375 9.69196C8.99107 9.74554 9.05952 9.77232 9.14286 9.77232H10.2857C10.369 9.77232 10.4375 9.74554 10.4911 9.69196C10.5446 9.63839 10.5714 9.56994 10.5714 9.48661ZM12.8571 14.058V12.9152C12.8571 12.8318 12.8304 12.7634 12.7768 12.7098C12.7232 12.6562 12.6548 12.6295 12.5714 12.6295H11.4286C11.3452 12.6295 11.2768 12.6562 11.2232 12.7098C11.1696 12.7634 11.1429 12.8318 11.1429 12.9152V14.058C11.1429 14.1414 11.1696 14.2098 11.2232 14.2634C11.2768 14.317 11.3452 14.3438 11.4286 14.3438H12.5714C12.6548 14.3438 12.7232 14.317 12.7768 14.2634C12.8304 14.2098 12.8571 14.1414 12.8571 14.058ZM12.8571 11.7723V10.6295C12.8571 10.5461 12.8304 10.4777 12.7768 10.4241C12.7232 10.3705 12.6548 10.3437 12.5714 10.3437H11.4286C11.3452 10.3437 11.2768 10.3705 11.2232 10.4241C11.1696 10.4777 11.1429 10.5461 11.1429 10.6295V11.7723C11.1429 11.8557 11.1696 11.9241 11.2232 11.9777C11.2768 12.0312 11.3452 12.058 11.4286 12.058H12.5714C12.6548 12.058 12.7232 12.0312 12.7768 11.9777C12.8304 11.9241 12.8571 11.8557 12.8571 11.7723ZM12.8571 9.48661V8.34375C12.8571 8.26042 12.8304 8.19196 12.7768 8.13839C12.7232 8.08482 12.6548 8.05803 12.5714 8.05803H11.4286C11.3452 8.05803 11.2768 8.08482 11.2232 8.13839C11.1696 8.19196 11.1429 8.26042 11.1429 8.34375V9.48661C11.1429 9.56994 11.1696 9.63839 11.2232 9.69196C11.2768 9.74554 11.3452 9.77232 11.4286 9.77232H12.5714C12.6548 9.77232 12.7232 9.74554 12.7768 9.69196C12.8304 9.63839 12.8571 9.56994 12.8571 9.48661ZM13.7143 6.05803V3.77232H12.2857C12.0476 3.77232 11.8452 3.68899 11.6786 3.52232C11.5119 3.35565 11.4286 3.15327 11.4286 2.91518V1.48661H5.71429V6.05803H13.7143Z" fill="#C6282E"/>
</svg>
