<svg width="10" height="15" viewBox="0 0 10 15" fill="none" xmlns="http://www.w3.org/2000/svg">
<path d="M6.1991 6.67248C6.1991 6.67248 6.31092 6.56066 6.53455 6.33703C6.75818 6.1134 6.87 5.68551 6.87 5.05338C6.87 4.42124 6.64637 3.88154 6.1991 3.43428C5.75184 2.98701 5.21214 2.76338 4.58 2.76338C3.94786 2.76338 3.40816 2.98701 2.9609 3.43428C2.51363 3.88154 2.29 4.42124 2.29 5.05338C2.29 5.68551 2.51363 6.22521 2.9609 6.67248C3.40816 7.11975 3.94786 7.34338 4.58 7.34338C5.21214 7.34338 5.75184 7.11975 6.1991 6.67248ZM9.16 5.05338C9.16 5.70341 9.0616 6.23714 8.8648 6.65459L5.60871 13.5783C5.51329 13.7751 5.37166 13.9301 5.18381 14.0434C4.99596 14.1567 4.79469 14.2134 4.58 14.2134C4.36531 14.2134 4.16404 14.1567 3.97619 14.0434C3.78834 13.9301 3.64969 13.7751 3.56023 13.5783L0.295195 6.65459C0.0983984 6.23714 0 5.70341 0 5.05338C0 3.78911 0.447266 2.70971 1.3418 1.81518C2.23633 0.920645 3.31573 0.473379 4.58 0.473379C5.84427 0.473379 6.92367 0.920645 7.8182 1.81518C8.71273 2.70971 9.16 3.78911 9.16 5.05338Z" fill="#C6282E"/>
</svg>
