<svg width="13" height="14" viewBox="0 0 13 14" fill="none" xmlns="http://www.w3.org/2000/svg">
<path d="M12.58 10.4169C12.58 10.5777 12.5502 10.7877 12.4907 11.0468C12.4311 11.3059 12.3685 11.5099 12.303 11.6588C12.1779 11.9566 11.8146 12.2723 11.213 12.6059C10.6531 12.9096 10.0991 13.0615 9.55115 13.0615C9.39033 13.0615 9.23397 13.0511 9.08208 13.0303C8.93019 13.0094 8.75894 12.9722 8.56834 12.9186C8.37773 12.865 8.23627 12.8218 8.14394 12.789C8.05162 12.7563 7.88633 12.6952 7.64807 12.6059C7.40981 12.5165 7.26388 12.4629 7.21027 12.445C6.62654 12.2366 6.10535 11.9894 5.6467 11.7035C4.88428 11.2329 4.09654 10.5911 3.28349 9.77804C2.47043 8.96498 1.82863 8.17724 1.35807 7.41482C1.07216 6.95617 0.824967 6.43498 0.616491 5.85125C0.598622 5.79765 0.545014 5.65171 0.455668 5.41346C0.366321 5.1752 0.305268 5.00991 0.272507 4.91758C0.239747 4.82526 0.196562 4.68379 0.142955 4.49319C0.0893466 4.30258 0.0521188 4.13133 0.0312713 3.97944C0.0104238 3.82755 0 3.6712 0 3.51037C0 2.96238 0.151889 2.40843 0.455668 1.84853C0.789228 1.24693 1.10492 0.883583 1.40274 0.758498C1.55165 0.692977 1.75566 0.630435 2.01477 0.57087C2.27387 0.511306 2.48384 0.481524 2.64466 0.481524C2.72805 0.481524 2.79059 0.490458 2.83229 0.508327C2.9395 0.544066 3.09735 0.770411 3.30582 1.18736C3.37134 1.30053 3.46069 1.46136 3.57386 1.66983C3.68704 1.87831 3.79127 2.06743 3.88658 2.23718C3.98188 2.40694 4.0742 2.56628 4.16355 2.71519C4.18142 2.73901 4.23354 2.81347 4.31991 2.93855C4.40628 3.06364 4.47031 3.16937 4.512 3.25574C4.5537 3.3421 4.57455 3.42698 4.57455 3.51037C4.57455 3.6295 4.48967 3.77841 4.31991 3.95711C4.15015 4.1358 3.9655 4.2996 3.76596 4.44851C3.56642 4.59742 3.38177 4.75527 3.21201 4.92205C3.04225 5.08883 2.95737 5.22583 2.95737 5.33304C2.95737 5.38665 2.97226 5.45366 3.00205 5.53407C3.03183 5.61449 3.05714 5.67554 3.07799 5.71723C3.09884 5.75893 3.14053 5.83041 3.20308 5.93167C3.26562 6.03293 3.29987 6.08951 3.30582 6.10142C3.75851 6.91746 4.27672 7.61734 4.86045 8.20107C5.44419 8.7848 6.14407 9.30301 6.9601 9.7557C6.97201 9.76166 7.0286 9.79591 7.12986 9.85845C7.23112 9.92099 7.30259 9.96269 7.34429 9.98353C7.38598 10.0044 7.44704 10.0297 7.52745 10.0595C7.60786 10.0893 7.67487 10.1042 7.72848 10.1042C7.8357 10.1042 7.97269 10.0193 8.13947 9.84951C8.30625 9.67975 8.4641 9.49511 8.61301 9.29556C8.76192 9.09602 8.92572 8.91137 9.10442 8.74162C9.28311 8.57186 9.43202 8.48698 9.55115 8.48698C9.63454 8.48698 9.71942 8.50783 9.80579 8.54952C9.89216 8.59122 9.99788 8.65525 10.123 8.74162C10.2481 8.82798 10.3225 8.8801 10.3463 8.89797C10.4952 8.98732 10.6546 9.07964 10.8243 9.17495C10.9941 9.27025 11.1832 9.37449 11.3917 9.48766C11.6002 9.60083 11.761 9.69018 11.8742 9.7557C12.2911 9.96417 12.5175 10.122 12.5532 10.2292C12.5711 10.2709 12.58 10.3335 12.58 10.4169Z" fill="#C6282E"/>
</svg>
