<svg width="14" height="15" viewBox="0 0 14 15" fill="none" xmlns="http://www.w3.org/2000/svg">
<path d="M11.4333 9.9965C11.4333 9.931 11.4274 9.88336 11.4155 9.85359C11.3976 9.80595 11.283 9.71811 11.0716 9.59008C10.8602 9.46206 10.5967 9.31467 10.2811 9.14794L9.80766 8.8889C9.77788 8.87104 9.72131 8.83233 9.63794 8.77278C9.55457 8.71323 9.48014 8.66857 9.41464 8.6388C9.34913 8.60902 9.28661 8.59413 9.22706 8.59413C9.11987 8.59413 8.97993 8.6909 8.80724 8.88443C8.63455 9.07797 8.46484 9.27299 8.2981 9.4695C8.13136 9.66601 8.00036 9.76426 7.90508 9.76426C7.86339 9.76426 7.81427 9.75384 7.7577 9.733C7.70112 9.71216 7.65497 9.69281 7.61924 9.67494C7.58352 9.65708 7.5329 9.62879 7.4674 9.59008C7.40189 9.55138 7.36021 9.52607 7.34234 9.51416C6.75281 9.18664 6.24516 8.81 5.81939 8.38423C5.39362 7.95845 5.01697 7.4508 4.68945 6.86127C4.67754 6.84341 4.65224 6.80172 4.61353 6.73622C4.57482 6.67071 4.54654 6.6201 4.52867 6.58437C4.51081 6.54864 4.49145 6.50249 4.47061 6.44592C4.44977 6.38935 4.43935 6.34022 4.43935 6.29854C4.43935 6.22112 4.50039 6.12138 4.62246 5.9993C4.74454 5.87723 4.87852 5.7626 5.02441 5.65541C5.17031 5.54822 5.30429 5.43061 5.42637 5.30258C5.54844 5.17455 5.60948 5.06588 5.60948 4.97656C5.60948 4.91701 5.59459 4.85448 5.56482 4.78898C5.53504 4.72347 5.49038 4.64904 5.43083 4.56567C5.37128 4.4823 5.33258 4.42573 5.31471 4.39596C5.29685 4.36023 5.25219 4.27537 5.18073 4.14139C5.10927 4.0074 5.03483 3.87193 4.95742 3.73497C4.88001 3.59801 4.80111 3.45658 4.72072 3.31068C4.64033 3.16479 4.56589 3.0442 4.49741 2.94893C4.42893 2.85365 4.3798 2.80005 4.35003 2.78815C4.32025 2.77623 4.27261 2.77028 4.20711 2.77028C3.92128 2.77028 3.62056 2.83578 3.30495 2.96679C3.03102 3.09184 2.79283 3.37321 2.59036 3.81089C2.3879 4.24857 2.28667 4.63713 2.28667 4.97656C2.28667 5.07183 2.29411 5.17307 2.309 5.28025C2.32388 5.38744 2.33877 5.47825 2.35366 5.55269C2.36855 5.62712 2.39534 5.72538 2.43405 5.84746C2.47276 5.96953 2.50253 6.05736 2.52337 6.11096C2.54421 6.16455 2.58143 6.26281 2.63503 6.40572C2.68862 6.54864 2.72137 6.63796 2.73328 6.67369C3.09057 7.65029 3.73519 8.60456 4.66712 9.53649C5.59906 10.4684 6.55332 11.113 7.52992 11.4703C7.56565 11.4822 7.65497 11.515 7.79789 11.5686C7.94081 11.6222 8.03906 11.6594 8.09266 11.6802C8.14625 11.7011 8.23408 11.7309 8.35616 11.7696C8.47823 11.8083 8.57649 11.8351 8.65092 11.85C8.72536 11.8648 8.81617 11.8797 8.92336 11.8946C9.03055 11.9095 9.13178 11.9169 9.22706 11.9169C9.56648 11.9169 9.95504 11.8157 10.3927 11.6132C10.8304 11.4108 11.1118 11.1726 11.2368 10.8987C11.3678 10.5831 11.4333 10.2823 11.4333 9.9965ZM13.72 3.05611V11.6311C13.72 12.3397 13.4684 12.9456 12.9652 13.4488C12.462 13.952 11.8561 14.2036 11.1475 14.2036H2.5725C1.86387 14.2036 1.25796 13.952 0.754779 13.4488C0.251593 12.9456 0 12.3397 0 11.6311V3.05611C0 2.34748 0.251593 1.74158 0.754779 1.23839C1.25796 0.735207 1.86387 0.483614 2.5725 0.483614H11.1475C11.8561 0.483614 12.462 0.735207 12.9652 1.23839C13.4684 1.74158 13.72 2.34748 13.72 3.05611Z" fill="#C6282E"/>
</svg>
