<svg width="80" height="80" viewBox="0 0 89 80" fill="none" xmlns="http://www.w3.org/2000/svg">
<path fill-rule="evenodd" clip-rule="evenodd" d="M2.14357e-08 3.99966C2.14357e-08 2.93889 0.426216 1.92156 1.18489 1.17147C1.94356 0.421392 2.97253 0 4.04545 0H48.5455C49.6184 0 50.6474 0.421392 51.406 1.17147C52.1647 1.92156 52.5909 2.93889 52.5909 3.99966V23.998H68.7727C71.429 23.998 74.0593 24.5153 76.5134 25.5203C78.9675 26.5253 81.1973 27.9983 83.0756 29.8554C84.9538 31.7124 86.4438 33.917 87.4603 36.3433C88.4768 38.7696 89 41.3701 89 43.9963V59.995C89.0004 62.5698 88.1634 65.0764 86.6125 67.1449C85.0616 69.2133 82.8791 70.7339 80.3872 71.482C79.6453 73.9018 78.1491 76.028 76.1123 77.5572C74.0755 79.0863 71.6021 79.9402 69.0453 79.997C66.4884 80.0537 63.9788 79.3105 61.8746 77.8733C59.7704 76.4361 58.1792 74.3784 57.3281 71.994H31.6759C30.8248 74.3784 29.2336 76.4361 27.1294 77.8733C25.0253 79.3105 22.5156 80.0537 19.9588 79.997C17.4019 79.9402 14.9286 79.0863 12.8918 77.5572C10.8549 76.028 9.35877 73.9018 8.61682 71.482C6.12417 70.7346 3.94076 69.2143 2.38911 67.1458C0.837457 65.0773 -0.000154717 62.5703 2.14357e-08 59.995V43.9963H24.2727C25.3456 43.9963 26.3746 43.5749 27.1333 42.8248C27.892 42.0748 28.3182 41.0574 28.3182 39.9966C28.3182 38.9359 27.892 37.9185 27.1333 37.1685C26.3746 36.4184 25.3456 35.997 24.2727 35.997H2.14357e-08V27.9977H16.1818C17.2547 27.9977 18.2837 27.5763 19.0424 26.8262C19.8011 26.0761 20.2273 25.0588 20.2273 23.998C20.2273 22.9372 19.8011 21.9199 19.0424 21.1698C18.2837 20.4197 17.2547 19.9983 16.1818 19.9983H2.14357e-08V3.99966ZM52.5909 63.9946H57.3281C58.1279 61.7566 59.5811 59.8034 61.5038 58.382C63.4265 56.9607 65.7324 56.135 68.1299 56.0096C70.5273 55.8841 72.9085 56.4645 74.9722 57.6773C77.036 58.89 78.6895 60.6807 79.7238 62.8227C80.1 62.4518 80.3984 62.011 80.6018 61.5258C80.8052 61.0405 80.9096 60.5203 80.9091 59.995V43.9963C80.9091 40.814 79.6304 37.762 77.3544 35.5117C75.0784 33.2615 71.9915 31.9973 68.7727 31.9973H52.5909V63.9946ZM24.2727 67.9943C24.2727 66.9335 23.8465 65.9162 23.0878 65.1661C22.3292 64.416 21.3002 63.9946 20.2273 63.9946C19.1544 63.9946 18.1254 64.416 17.3667 65.1661C16.608 65.9162 16.1818 66.9335 16.1818 67.9943C16.1818 69.0551 16.608 70.0724 17.3667 70.8225C18.1254 71.5726 19.1544 71.994 20.2273 71.994C21.3002 71.994 22.3292 71.5726 23.0878 70.8225C23.8465 70.0724 24.2727 69.0551 24.2727 67.9943ZM65.9126 65.1665C65.5358 65.5371 65.2371 65.9777 65.0336 66.4631C64.8302 66.9485 64.7261 67.4689 64.7273 67.9943C64.7271 68.9197 65.0514 69.8164 65.645 70.5319C66.2386 71.2473 67.0648 71.7371 67.9827 71.9178C68.9006 72.0985 69.8535 71.959 70.6791 71.5229C71.5046 71.0869 72.1516 70.3813 72.51 69.5264C72.8683 68.6716 72.9157 67.7203 72.6442 66.8348C72.3727 65.9492 71.7989 65.1842 71.0208 64.6699C70.2427 64.1557 69.3083 63.9241 68.3768 64.0147C67.4454 64.1052 66.5745 64.5123 65.9126 65.1665Z" fill="white"/>
</svg>
