<svg width="80" height="80" viewBox="0 0 80 80" fill="none" xmlns="http://www.w3.org/2000/svg">
<path d="M44 0.2V8.28C59.8 10.24 72 23.68 72 40C72 52.84 64.32 64 53.12 69.12L44 60V80H64L59.12 75.12C71.64 68.28 80 55.04 80 40C80 19.28 64.2 2.2 44 0.2ZM36 0C28.2 0.8 20.8 3.84 14.72 8.84L20.4 14.52C24.9404 11.0199 30.3193 8.77181 36 8V0ZM8.8 14.72C3.84 20.8 0.8 28.2 0 36H8C8.76 30.32 11 24.92 14.52 20.4L8.8 14.72ZM16 24V32H28V36H24C19.6 36 16 39.6 16 44V56H36V48H24V44H28C32.44 44 36 40.44 36 36V32C36 29.8783 35.1571 27.8434 33.6569 26.3431C32.1566 24.8429 30.1217 24 28 24H16ZM40 24V44H52V56H60V44H64V36H60V24H52V36H48V24H40ZM0 44C0.8 51.8 3.88 59.2 8.88 65.28L14.56 59.6C11.048 55.0624 8.78627 49.6838 8 44H0ZM20.44 65.48L14.72 71.16C20.7975 76.1221 28.1954 79.1953 36 80V72C30.3267 71.2457 24.9563 68.9954 20.44 65.48Z" fill="white"/>
</svg>
