<svg width="60" height="60" viewBox="0 0 60 60" fill="none" xmlns="http://www.w3.org/2000/svg">
<path d="M23.3333 0H3.33333C2.44928 0 1.60143 0.351189 0.976311 0.976311C0.351189 1.60143 0 2.44928 0 3.33333V23.3333C0 24.2174 0.351189 25.0652 0.976311 25.6904C1.60143 26.3155 2.44928 26.6667 3.33333 26.6667H23.3333C24.2174 26.6667 25.0652 26.3155 25.6904 25.6904C26.3155 25.0652 26.6667 24.2174 26.6667 23.3333V3.33333C26.6667 2.44928 26.3155 1.60143 25.6904 0.976311C25.0652 0.351189 24.2174 0 23.3333 0ZM56.6667 0H36.6667C35.7826 0 34.9348 0.351189 34.3096 0.976311C33.6845 1.60143 33.3333 2.44928 33.3333 3.33333V23.3333C33.3333 24.2174 33.6845 25.0652 34.3096 25.6904C34.9348 26.3155 35.7826 26.6667 36.6667 26.6667H56.6667C57.5507 26.6667 58.3986 26.3155 59.0237 25.6904C59.6488 25.0652 60 24.2174 60 23.3333V3.33333C60 2.44928 59.6488 1.60143 59.0237 0.976311C58.3986 0.351189 57.5507 0 56.6667 0ZM23.3333 33.3333H3.33333C2.44928 33.3333 1.60143 33.6845 0.976311 34.3096C0.351189 34.9348 0 35.7826 0 36.6667V56.6667C0 57.5507 0.351189 58.3986 0.976311 59.0237C1.60143 59.6488 2.44928 60 3.33333 60H23.3333C24.2174 60 25.0652 59.6488 25.6904 59.0237C26.3155 58.3986 26.6667 57.5507 26.6667 56.6667V36.6667C26.6667 35.7826 26.3155 34.9348 25.6904 34.3096C25.0652 33.6845 24.2174 33.3333 23.3333 33.3333ZM46.6667 33.3333C49.2754 33.3333 51.8267 34.0986 54.0048 35.5343C56.1829 36.97 57.8919 39.0131 58.9203 41.4106C59.9486 43.808 60.2511 46.4545 59.7903 49.0221C59.3294 51.5898 58.1255 53.9659 56.3276 55.856C54.5297 57.7462 52.2168 59.0674 49.6754 59.6561C47.1339 60.2448 44.4757 60.075 42.0298 59.1678C39.584 58.2606 37.458 56.6558 35.9151 54.5522C34.3723 52.4487 33.4804 49.9388 33.35 47.3333L33.3333 46.6667L33.35 46C33.521 42.5835 34.9987 39.3634 37.4773 37.0057C39.9559 34.6481 43.2459 33.3333 46.6667 33.3333Z" fill="white"/>
</svg>
